<svg width="187" height="48" viewBox="0 0 187 48" fill="none" xmlns="http://www.w3.org/2000/svg">
<circle cx="16.7097" cy="15.6067" r="3.98994" fill="#FF6362" stroke="#FF6362" stroke-width="0.96"/>
<circle cx="32.4109" cy="15.6067" r="3.98994" fill="#FF6362" stroke="#FF6362" stroke-width="0.96"/>
<mask id="path-3-inside-1_191_1308" fill="white">
<path fill-rule="evenodd" clip-rule="evenodd" d="M21.3904 36.7189L18.5265 33.855L15.6741 36.7075C13.9285 38.4531 11.0983 38.4531 9.35267 36.7075C7.60705 34.9618 7.60705 32.1316 9.35267 30.386L15.3627 24.376C16.8841 22.8546 19.2294 22.6592 20.9624 23.7897C21.2243 23.9588 21.4725 24.1581 21.7019 24.3875L24.5401 27.2257L27.4136 24.3522C28.9266 22.8392 31.2544 22.6376 32.9845 23.7473C33.2572 23.9203 33.5152 24.1258 33.7531 24.3637L39.7631 30.3737C41.5087 32.1193 41.5087 34.9495 39.7631 36.6952C38.0175 38.4408 35.1873 38.4408 33.4417 36.6952L30.5776 33.8311L27.9672 36.4415C27.8867 36.5366 27.8016 36.6292 27.7119 36.719C25.9663 38.4646 23.1361 38.4646 21.3904 36.7189Z"/>
</mask>
<path fill-rule="evenodd" clip-rule="evenodd" d="M21.3904 36.7189L18.5265 33.855L15.6741 36.7075C13.9285 38.4531 11.0983 38.4531 9.35267 36.7075C7.60705 34.9618 7.60705 32.1316 9.35267 30.386L15.3627 24.376C16.8841 22.8546 19.2294 22.6592 20.9624 23.7897C21.2243 23.9588 21.4725 24.1581 21.7019 24.3875L24.5401 27.2257L27.4136 24.3522C28.9266 22.8392 31.2544 22.6376 32.9845 23.7473C33.2572 23.9203 33.5152 24.1258 33.7531 24.3637L39.7631 30.3737C41.5087 32.1193 41.5087 34.9495 39.7631 36.6952C38.0175 38.4408 35.1873 38.4408 33.4417 36.6952L30.5776 33.8311L27.9672 36.4415C27.8867 36.5366 27.8016 36.6292 27.7119 36.719C25.9663 38.4646 23.1361 38.4646 21.3904 36.7189Z" fill="#FF6362"/>
<path d="M18.5265 33.855L19.2054 33.1762L18.5265 32.4974L17.8477 33.1762L18.5265 33.855ZM21.3904 36.7189L22.0693 36.0401L22.0693 36.0401L21.3904 36.7189ZM15.6741 36.7075L16.3529 37.3863L16.3529 37.3863L15.6741 36.7075ZM9.35267 36.7075L10.0315 36.0286L10.0315 36.0286L9.35267 36.7075ZM9.35267 30.386L8.67385 29.7072L8.67385 29.7072L9.35267 30.386ZM15.3627 24.376L16.0415 25.0548L16.0415 25.0548L15.3627 24.376ZM20.9624 23.7897L20.4379 24.5938L20.4417 24.5962L20.9624 23.7897ZM21.7019 24.3875L21.023 25.0663L21.023 25.0663L21.7019 24.3875ZM24.5401 27.2257L23.8613 27.9045L24.5401 28.5834L25.2189 27.9045L24.5401 27.2257ZM27.4136 24.3522L26.7348 23.6734L26.7348 23.6734L27.4136 24.3522ZM32.9845 23.7473L32.4662 24.5554L32.4701 24.5578L32.9845 23.7473ZM33.7531 24.3637L34.4319 23.6849L34.4319 23.6848L33.7531 24.3637ZM39.7631 30.3737L39.0843 31.0525L39.0843 31.0525L39.7631 30.3737ZM39.7631 36.6952L39.0843 36.0163L39.0843 36.0163L39.7631 36.6952ZM33.4417 36.6952L32.7628 37.374L32.7628 37.374L33.4417 36.6952ZM30.5776 33.8311L31.2564 33.1523L30.5776 32.4735L29.8988 33.1523L30.5776 33.8311ZM27.9672 36.4415L27.2884 35.7627L27.2601 35.7909L27.2343 35.8215L27.9672 36.4415ZM27.7119 36.719L27.0331 36.0401L27.0331 36.0401L27.7119 36.719ZM17.8477 34.5339L20.7116 37.3978L22.0693 36.0401L19.2054 33.1762L17.8477 34.5339ZM16.3529 37.3863L19.2054 34.5339L17.8477 33.1762L14.9953 36.0286L16.3529 37.3863ZM8.67385 37.3863C10.7944 39.5068 14.2324 39.5068 16.3529 37.3863L14.9953 36.0286C13.6246 37.3994 11.4022 37.3994 10.0315 36.0286L8.67385 37.3863ZM8.67385 29.7072C6.55333 31.8277 6.55333 35.2658 8.67385 37.3863L10.0315 36.0286C8.66078 34.6579 8.66078 32.4356 10.0315 31.0648L8.67385 29.7072ZM14.6839 23.6972L8.67385 29.7072L10.0315 31.0648L16.0415 25.0548L14.6839 23.6972ZM21.4869 22.9857C19.3814 21.6121 16.5328 21.8482 14.6839 23.6972L16.0415 25.0548C17.2354 23.861 19.0773 23.7062 20.4379 24.5938L21.4869 22.9857ZM22.3807 23.7086C22.1029 23.4309 21.8018 23.1889 21.4831 22.9832L20.4417 24.5962C20.6469 24.7287 20.842 24.8852 21.023 25.0663L22.3807 23.7086ZM25.2189 26.5469L22.3807 23.7086L21.023 25.0663L23.8613 27.9045L25.2189 26.5469ZM26.7348 23.6734L23.8613 26.5469L25.2189 27.9045L28.0925 25.031L26.7348 23.6734ZM33.5028 22.9392C31.4009 21.591 28.5736 21.8346 26.7348 23.6734L28.0925 25.031C29.2797 23.8438 31.1079 23.6841 32.4662 24.5554L33.5028 22.9392ZM32.4701 24.5578C32.6837 24.6934 32.8865 24.8547 33.0742 25.0425L34.4319 23.6848C34.1439 23.3969 33.8307 23.1473 33.499 22.9368L32.4701 24.5578ZM33.0742 25.0425L39.0843 31.0525L40.4419 29.6949L34.4319 23.6849L33.0742 25.0425ZM39.0843 31.0525C40.455 32.4232 40.455 34.6456 39.0843 36.0163L40.4419 37.374C42.5625 35.2535 42.5625 31.8154 40.4419 29.6949L39.0843 31.0525ZM39.0843 36.0163C37.7136 37.387 35.4912 37.387 34.1205 36.0163L32.7628 37.374C34.8834 39.4945 38.3214 39.4945 40.4419 37.374L39.0843 36.0163ZM34.1205 36.0163L31.2564 33.1523L29.8988 34.5099L32.7628 37.374L34.1205 36.0163ZM28.646 37.1203L31.2564 34.5099L29.8988 33.1523L27.2884 35.7627L28.646 37.1203ZM28.3907 37.3978C28.4993 37.2892 28.6025 37.177 28.7001 37.0615L27.2343 35.8215C27.171 35.8963 27.1039 35.9693 27.0331 36.0401L28.3907 37.3978ZM20.7116 37.3978C22.8321 39.5183 26.2702 39.5183 28.3907 37.3978L27.0331 36.0401C25.6624 37.4108 23.44 37.4108 22.0693 36.0401L20.7116 37.3978Z" fill="#FF6362" mask="url(#path-3-inside-1_191_1308)"/>
<path d="M67.8828 21.4688C67.8828 24.5859 69.875 27.2109 74.2344 28.125L72.8281 30.4922C69.7344 29.7773 67.5898 28.1953 66.4297 25.9922C65.2461 28.1953 63.1016 29.7773 60.0312 30.4922L58.5781 28.125C62.9375 27.2109 64.9297 24.5859 64.9531 21.4688V18.3047H67.8828V21.4688ZM86.525 18.2812C90.3219 18.2812 93.3922 20.8125 93.3922 24.3281C93.3922 27.7969 90.3219 30.3516 86.525 30.3281C82.775 30.3516 79.6812 27.7969 79.7047 24.3281C79.6812 20.8125 82.775 18.2812 86.525 18.2812ZM86.525 20.8594C84.2984 20.8594 82.5172 22.1953 82.5406 24.3281C82.5172 26.4375 84.2984 27.8438 86.525 27.8438C88.775 27.8438 90.4859 26.4375 90.4859 24.3281C90.4859 22.1953 88.775 20.8594 86.525 20.8594ZM108.167 21.4688C108.167 24.5859 110.159 27.2109 114.519 28.125L113.112 30.4922C110.019 29.7773 107.874 28.1953 106.714 25.9922C105.53 28.1953 103.386 29.7773 100.316 30.4922L98.8625 28.125C103.222 27.2109 105.214 24.5859 105.237 21.4688V18.3047H108.167V21.4688ZM126.809 18.2812C130.606 18.2812 133.677 20.8125 133.677 24.3281C133.677 27.7969 130.606 30.3516 126.809 30.3281C123.059 30.3516 119.966 27.7969 119.989 24.3281C119.966 20.8125 123.059 18.2812 126.809 18.2812ZM126.809 20.8594C124.583 20.8594 122.802 22.1953 122.825 24.3281C122.802 26.4375 124.583 27.8438 126.809 27.8438C129.059 27.8438 130.77 26.4375 130.77 24.3281C130.77 22.1953 129.059 20.8594 126.809 20.8594Z" fill="#FF6362"/>
<path d="M154.391 19.25V20.1406C154.391 21.125 154.391 22.5469 154.062 24.3125L152.109 24.125C152.359 22.7578 152.422 21.7266 152.438 20.875H147.078V19.25H154.391ZM150.859 22.5312V25.25C152.273 25.1953 153.727 25.0859 155.062 24.8906L155.172 26.3281C152.219 26.875 148.875 26.9219 146.406 26.9375L146.234 25.3438C147.031 25.3438 147.93 25.3438 148.875 25.3125V22.5312H150.859ZM157.875 18.2188V22.5469H159.594V24.2188H157.875V28.8594H155.828V18.2188H157.875ZM158.312 30.5938V32.1875H148.328V27.9062H150.328V30.5938H158.312ZM171.572 18.2188V32.4688H169.587V18.2188H171.572ZM167.166 19.4062V24.8906H162.478V27.5C164.642 27.4922 166.486 27.3672 168.572 27.0312L168.744 28.6406C166.4 29.0469 164.291 29.1406 161.697 29.1406H160.416V23.3125H165.134V21.0156H160.4V19.4062H167.166ZM178.128 22.0938C178.112 24.2656 179.269 26.7656 181.612 27.8438L180.503 29.4062C178.917 28.6797 177.784 27.2266 177.159 25.5156C176.519 27.3984 175.355 28.9922 173.706 29.7656L172.55 28.1875C174.925 27.0781 176.112 24.4375 176.128 22.0938V21.2188H173.112V19.5938H180.987V21.2188H178.128V22.0938ZM184.097 18.2188V23.6406H186.191V25.3125H184.097V32.4375H182.097V18.2188H184.097Z" fill="#FF6362"/>
</svg>
